<mxfile host="app.diagrams.net" modified="2023-08-28T20:58:40.124Z" agent="Mozilla/5.0 (Windows NT 10.0; Win64; x64) AppleWebKit/537.36 (KHTML, like Gecko) Chrome/115.0.0.0 Safari/537.36" etag="tgEFlDpl_g2Hw6u55zgq" version="21.6.9" type="device">
  <diagram name="PÃ¡gina-1" id="daxOohnOLN_PKYT9jtpG">
    <mxGraphModel dx="1434" dy="758" grid="1" gridSize="10" guides="1" tooltips="1" connect="1" arrows="1" fold="1" page="1" pageScale="1" pageWidth="1169" pageHeight="827" math="0" shadow="0">
      <root>
        <mxCell id="0" />
        <mxCell id="1" parent="0" />
        <mxCell id="L75uIQl6OypaBrUaCVp4-22" value="" style="shape=folder;fontStyle=1;spacingTop=10;tabWidth=490;tabHeight=34;tabPosition=left;html=1;whiteSpace=wrap;" vertex="1" parent="1">
          <mxGeometry x="130" y="146" width="770" height="400" as="geometry" />
        </mxCell>
        <mxCell id="L75uIQl6OypaBrUaCVp4-15" value="&amp;nbsp; &amp;nbsp;Number&lt;br&gt;&amp;nbsp; &amp;nbsp;Country code&lt;br&gt;&amp;nbsp; &amp;nbsp;digit_lenght_validator()" style="shape=folder;fontStyle=1;spacingTop=10;tabWidth=160;tabHeight=30;tabPosition=left;html=1;whiteSpace=wrap;align=left;" vertex="1" parent="1">
          <mxGeometry x="180" y="240" width="240" height="180" as="geometry" />
        </mxCell>
        <mxCell id="L75uIQl6OypaBrUaCVp4-16" value="&amp;nbsp; PhoneParser" style="text;html=1;strokeColor=none;fillColor=none;align=left;verticalAlign=middle;whiteSpace=wrap;rounded=0;" vertex="1" parent="1">
          <mxGeometry x="180" y="240" width="140" height="30" as="geometry" />
        </mxCell>
        <mxCell id="L75uIQl6OypaBrUaCVp4-17" value="Parse package diagram" style="text;strokeColor=none;fillColor=none;html=1;fontSize=24;fontStyle=1;verticalAlign=middle;align=center;" vertex="1" parent="1">
          <mxGeometry x="670" y="80" width="100" height="40" as="geometry" />
        </mxCell>
        <mxCell id="L75uIQl6OypaBrUaCVp4-18" value="Project: Phone parser" style="text;align=right;fontStyle=1;verticalAlign=middle;spacingLeft=3;spacingRight=3;strokeColor=none;rotatable=0;points=[[0,0.5],[1,0.5]];portConstraint=eastwest;html=1;" vertex="1" parent="1">
          <mxGeometry x="776" y="120" width="80" height="26" as="geometry" />
        </mxCell>
        <mxCell id="L75uIQl6OypaBrUaCVp4-19" value="&amp;nbsp; &amp;nbsp;CodeArray[]&lt;br&gt;&amp;nbsp; &amp;nbsp;country_code&lt;br&gt;&lt;br&gt;&amp;nbsp; &amp;nbsp;country_code_validator()&lt;br&gt;&amp;nbsp; &amp;nbsp;country_code()" style="shape=folder;fontStyle=1;spacingTop=10;tabWidth=160;tabHeight=30;tabPosition=left;html=1;whiteSpace=wrap;align=left;" vertex="1" parent="1">
          <mxGeometry x="600" y="240" width="240" height="180" as="geometry" />
        </mxCell>
        <mxCell id="L75uIQl6OypaBrUaCVp4-20" value="&amp;nbsp; &amp;nbsp;CountryCodes" style="text;html=1;strokeColor=none;fillColor=none;align=left;verticalAlign=middle;whiteSpace=wrap;rounded=0;" vertex="1" parent="1">
          <mxGeometry x="600" y="240" width="140" height="30" as="geometry" />
        </mxCell>
        <mxCell id="L75uIQl6OypaBrUaCVp4-21" value="" style="endArrow=open;html=1;rounded=0;entryX=0;entryY=0.556;entryDx=0;entryDy=0;entryPerimeter=0;endFill=0;dashed=1;dashPattern=8 8;" edge="1" parent="1" target="L75uIQl6OypaBrUaCVp4-19">
          <mxGeometry width="50" height="50" relative="1" as="geometry">
            <mxPoint x="420" y="340" as="sourcePoint" />
            <mxPoint x="540" y="340" as="targetPoint" />
          </mxGeometry>
        </mxCell>
        <mxCell id="L75uIQl6OypaBrUaCVp4-23" value="&lt;font style=&quot;font-size: 16px;&quot;&gt;&amp;nbsp; &amp;nbsp;Package PhoneParser&lt;/font&gt;" style="text;html=1;strokeColor=none;fillColor=none;align=left;verticalAlign=middle;whiteSpace=wrap;rounded=0;" vertex="1" parent="1">
          <mxGeometry x="130" y="150" width="290" height="30" as="geometry" />
        </mxCell>
      </root>
    </mxGraphModel>
  </diagram>
</mxfile>
